<?xml version="1.0" encoding="UTF-8"?>
<!DOCTYPE svg PUBLIC "-//W3C//DTD SVG 1.1//EN" "http://www.w3.org/Graphics/SVG/1.1/DTD/svg11.dtd">
<!-- Creator: CorelDRAW -->
<svg xmlns="http://www.w3.org/2000/svg" xml:space="preserve" width="2000px" height="1600px" version="1.1" style="shape-rendering:geometricPrecision; text-rendering:geometricPrecision; image-rendering:optimizeQuality; fill-rule:evenodd; clip-rule:evenodd"
viewBox="0 0 2000 1600"
 xmlns:xlink="http://www.w3.org/1999/xlink">
 <defs>
  <style type="text/css">
   <![CDATA[
    .fil0 {fill:black}
    .fil1 {fill:#FEFEFE}
    .fil2 {fill:#4E2583;fill-rule:nonzero}
   ]]>
  </style>
 </defs>
 <g id="Capa_x0020_1">
  <metadata id="CorelCorpID_0Corel-Layer"/>
  <g id="Abilene_x0020_Christian_x0020_Univertsity_x0020_Wildcats.cdr">
   <path class="fil0" d="M1104.16 728.35c48.32,-0.01 96.64,0.01 144.96,0.01l46.18 0 0.06 46.18c0.03,16.36 0,32.71 0.03,49.06l0.06 46.22 -46.21 0.09c-25.73,0.06 -51.45,0.04 -77.17,0.03 -0.02,49.26 -0.02,98.52 -0.01,147.78 17.87,-5.93 35.24,-13.36 51.55,-22.73 27.41,-15.74 55.46,-40.92 62.51,-73.03l7.99 -36.41 37.27 0.08c40.96,0.09 81.92,0.22 122.88,0.19l53.89 -0.02 -8.15 53.26c-6.71,43.89 -27.58,84.88 -57.86,117.21 -30.65,32.7 -69.15,56.69 -110.27,73.98 -51.08,21.48 -105.15,33.59 -159.89,40.83 0.08,14.75 0.66,29.55 3.05,43.88 4.05,24.24 13.62,48.45 30.05,67 17.74,20.03 42.53,33.43 67.72,41.65 38.84,12.67 80.56,16.06 121.23,15.89 34.44,-0.15 69.36,1.12 103.63,-2.79 33.44,-3.82 67.78,-11.29 97.66,-27.28 20.06,-10.72 38.1,-26.22 50.16,-45.65 14.94,-24.07 21.37,-53.13 21.43,-81.26 0.22,-104.3 0.1,-208.6 -0.02,-312.91 -26.58,0.11 -53.16,0.29 -79.75,0.32l-46.25 0.08 -0.07 -46.26c-0.02,-16.56 -0.12,-33.11 0.05,-49.67l0.47 -45.8 45.8 0.04c122.16,0.08 244.32,0.02 366.49,0.04l46.18 0.01 0.05 46.18c0.02,16.34 -0.02,32.68 0.02,49.02l0.12 46.27 -46.26 0.09c-25.76,0.06 -51.52,0 -77.27,0 0.01,102.1 0.34,204.2 0.42,306.29 0.02,33.46 -4.27,66.97 -14.82,98.8 -13,39.23 -35.79,75.03 -65.98,103.28 -43.7,40.9 -99.22,65.38 -156.65,80.06 -71.69,18.32 -145.76,22.1 -219.44,21.44 -84.63,0.71 -169.73,-3.18 -251.07,-28.7 -45.72,-14.34 -89.29,-36.38 -124.75,-68.99 -36.5,-33.56 -62.07,-78.4 -73.2,-126.65 -6.56,-26.01 -8.27,-51.81 -8.61,-78.04 -82.84,-5.31 -165.32,-18.86 -242.64,-50.2 -68.1,-27.59 -130.85,-70.76 -173.47,-131.42 -32.5,-46.27 -51.75,-101.07 -57.58,-157.19 -6.39,-61.53 0.21,-124.99 23.58,-182.55 1.16,-2.87 2.38,-5.73 3.64,-8.57 -37.48,0 -74.96,0 -112.44,0.05 -16.95,26.96 -33.95,53.88 -50.94,80.81 15.94,0 31.88,-0.01 47.83,0.01l46.08 0.05 0.12 46.07c0.04,16.38 0,32.75 0.02,49.13l0.06 46.27 -46.28 0.03c-118,0.07 -235.99,0.02 -353.98,0.02l-45.88 0 -0.37 -45.88c-0.13,-16.45 -0.04,-32.91 -0.06,-49.37l-0.06 -46.22 46.22 -0.08c27.47,-0.05 54.93,-0.02 82.39,-0.03 124.87,-195.58 249.71,-391.17 374.48,-586.82l13.63 -21.36 25.33 -0.02c51.05,-0.04 102.1,-0.03 153.15,0l25.51 0.02 13.59 21.58c57.65,91.56 115.41,183.06 173.1,274.59 43.65,-5.11 87.63,-7.35 131.57,-7.15 52.62,0.25 105.07,7.25 156.25,19.24 35.98,8.44 71.37,19.63 104.61,35.94 1.58,0.77 3.16,1.56 4.74,2.37 0,-0.35 0,-0.7 0,-1.05l0.15 -46.09 46.1 0c33.52,0 67.04,-0.02 100.56,0l46.22 0.02 0 46.22c0,68.2 -0.02,136.39 0.02,204.59l0.02 46.22 -46.22 0.05c-35.36,0.04 -70.72,0.6 -106.09,0.47l-35.45 -0.13 -9.08 -34.27c-6.21,-23.41 -17.92,-45.56 -34.64,-63.17 -21.31,-22.44 -49.64,-37.75 -78.69,-47.72 -40.62,-13.93 -83.94,-19.32 -126.71,-20.71 -22.59,-0.73 -45.23,-0.49 -67.79,0.87 37.02,58.79 74.08,117.57 111.19,176.31zm-179.2 529.57c0,8.56 -2.14,16.54 -6.42,23.95 -4.3,7.41 -10.15,13.23 -17.55,17.49 -7.41,4.26 -15.4,6.4 -23.96,6.4 -8.54,0 -16.5,-2.14 -23.91,-6.4 -7.41,-4.26 -13.25,-10.08 -17.56,-17.49 -4.28,-7.41 -6.42,-15.39 -6.42,-23.95 0,-8.53 2.14,-16.51 6.42,-23.94 4.31,-7.41 10.15,-13.25 17.56,-17.51 7.41,-4.26 15.37,-6.4 23.91,-6.4 8.56,0 16.55,2.14 23.96,6.4 7.4,4.26 13.25,10.1 17.55,17.51 4.28,7.43 6.42,15.41 6.42,23.94zm-9.24 0c0,-10.67 -3.77,-19.74 -11.33,-27.3 -7.56,-7.54 -16.68,-11.3 -27.34,-11.3 -10.66,0 -19.78,3.76 -27.33,11.3 -7.56,7.56 -11.33,16.63 -11.33,27.3 0,10.66 3.77,19.73 11.33,27.29 7.55,7.54 16.67,11.3 27.33,11.3 10.66,0 19.78,-3.76 27.34,-11.3 7.56,-7.56 11.33,-16.63 11.33,-27.29zm-60.37 -25.63l22.9 0c6.49,0 11.18,1.31 14.09,3.92 2.91,2.61 4.37,6.12 4.37,10.53 0,3.42 -1.12,6.4 -3.34,8.91 -2.21,2.5 -5.72,4.32 -10.49,5.45 1.94,0.75 3.4,1.57 4.32,2.4 1.28,1.16 2.66,2.91 4.07,5.2 0.08,0.18 2.82,5.12 8.26,14.84l-15.03 0c-4.9,-9.76 -8.18,-15.58 -9.84,-17.49 -1.67,-1.9 -3.37,-2.87 -5.04,-2.87 -0.36,0 -0.89,0.06 -1.56,0.19l0 20.17 -12.71 0 0 -51.25zm12.71 21.71l5.53 0c3.66,0 6.25,-0.6 7.77,-1.8 1.49,-1.2 2.24,-2.74 2.24,-4.62 0,-1.89 -0.72,-3.43 -2.16,-4.63 -1.43,-1.2 -3.89,-1.8 -7.36,-1.8l-6.02 0 0 12.85zm-230.96 -748.15c21.43,-14.53 44.22,-26.83 67.82,-37.38 -31.16,-50.5 -62.22,-101.06 -93.5,-151.48 -39.5,62.97 -79.07,125.89 -118.6,188.84 48.1,0 96.19,-0.06 144.28,0.02zm228.25 222.51c-16.76,-26.96 -33.52,-53.92 -50.3,-80.86 -20.74,-0.01 -41.49,0.01 -62.23,0.01 -19.67,24.49 -32.92,54.12 -39.28,84.79 -7.27,34.98 -8.44,71.39 -2.6,106.66 5.09,30.71 16.79,60.47 34.81,85.91 18.72,26.41 43.93,48.02 71.93,64.09 44.13,25.33 94.24,38.58 144.68,44.77 0.01,-54.6 0.02,-109.19 0,-163.78 -48.39,-0.02 -96.78,0.05 -145.17,-0.04l-45.99 -0.08 -0.17 -45.98c-0.07,-16.5 -0.07,-32.99 0.02,-49.49l0.24 -45.98 45.98 -0.02c16.03,-0.01 32.05,-0.01 48.08,0z"/>
   <path class="fil1" d="M943.77 527.86c48.13,76.46 96.3,152.87 144.54,229.24 53.6,-0.01 107.21,0.01 160.81,0.01l17.47 0 0.03 17.47c0.02,16.36 0,32.71 0.02,49.06l0.02 17.49 -17.48 0.04c-35.29,0.07 -70.57,0 -105.85,0.03 -0.03,71.43 -0.03,142.86 0,214.28 32.97,-7.53 65.25,-18.71 94.6,-35.56 34.82,-20 67.37,-51.28 76.26,-91.79l3.03 -13.78 14.1 0.03c40.99,0.08 81.97,0.21 122.96,0.19l20.39 -0.01 -3.09 20.16c-5.83,38.15 -24.11,73.81 -50.42,101.89 -27.85,29.72 -63.07,51.43 -100.43,67.14 -56.38,23.71 -116.76,35.35 -177.36,41.78 -0.14,24.76 -0.75,49.86 3.31,74.16 4.94,29.63 16.83,58.69 36.88,81.33 21.2,23.95 50.17,40.08 80.32,49.92 41.87,13.65 86.45,17.49 130.27,17.31 35.54,-0.15 71.39,1.06 106.77,-2.98 37.17,-4.24 74.74,-12.72 107.96,-30.49 24.53,-13.12 46.29,-32.1 61.02,-55.84 17.79,-28.65 25.68,-62.85 25.75,-96.36 0.25,-113.93 0.09,-227.86 -0.04,-341.79 -36.17,0.03 -72.34,0.34 -108.51,0.4l-17.5 0.02 -0.03 -17.5c-0.02,-16.44 -0.13,-32.89 0.05,-49.33l0.18 -17.33 17.33 0.01c122.16,0.09 244.33,0.02 366.49,0.05l17.47 0 0.03 17.47c0.02,16.36 -0.03,32.71 0.02,49.06l0.04 17.51 -17.51 0.04c-35.31,0.07 -70.63,-0.06 -105.95,0.02 -0.05,111.68 0.34,223.36 0.42,335.04 0.02,30.35 -3.78,60.84 -13.36,89.72 -11.49,34.68 -31.65,66.37 -58.33,91.34 -40.07,37.5 -91.5,59.74 -144.13,73.2 -69.38,17.73 -141.31,21.19 -212.31,20.54 -81.54,0.7 -164.11,-2.79 -242.47,-27.38 -41.64,-13.06 -81.59,-33.02 -113.9,-62.73 -32.46,-29.84 -54.97,-69.73 -64.71,-112.23 -8.27,-32.57 -8.05,-65.4 -7.81,-98.54 -88.71,-3.86 -177.86,-16.06 -260.59,-49.59 -62.9,-25.49 -121.36,-65.24 -160.74,-121.3 -29.69,-42.26 -47.19,-92.4 -52.51,-143.64 -5.91,-56.87 0.01,-115.56 21.61,-168.76 6.85,-16.89 15.53,-32.86 25.38,-48.11 -58.9,-0.03 -117.8,-0.05 -176.71,0.04 -28.98,46.15 -58.12,92.2 -87.17,138.3 33.31,0.02 66.62,-0.04 99.93,0l17.43 0.01 0.05 17.44c0.04,16.36 0,32.72 0.02,49.08l0.02 17.51 -17.51 0.02c-117.99,0.06 -235.97,0.02 -353.96,0.02l-17.36 0 -0.14 -17.36c-0.13,-16.4 -0.04,-32.79 -0.06,-49.18l-0.03 -17.49 17.49 -0.03c32.7,-0.06 65.4,-0.01 98.1,-0.04 127.7,-200 255.35,-400.04 382.96,-600.1l5.16 -8.08 9.58 -0.01c51.04,-0.04 102.08,-0.04 153.11,0l9.65 0.01 5.14 8.16c60.93,96.72 121.93,193.38 182.87,290.09 48.36,-6.58 97.2,-9.45 146,-9.22 50.44,0.24 100.75,6.98 149.82,18.48 33.86,7.94 67.23,18.41 98.5,33.75 16.42,8.06 32.19,17.53 46.15,29.31 -0.01,-17.9 -0.05,-35.8 0.01,-53.7l0.06 -17.44 17.44 0c33.51,0 67.03,-0.02 100.54,0l17.49 0.01 0 17.49c0,68.2 -0.03,136.4 0.02,204.61l0.01 17.48 -17.49 0.02c-35.32,0.05 -70.64,0.6 -105.96,0.47l-13.41 -0.05 -3.44 -12.96c-7.44,-28.08 -21.53,-54.5 -41.58,-75.6 -24.56,-25.87 -56.69,-43.63 -90.2,-55.12 -43.37,-14.88 -89.43,-20.77 -135.1,-22.25 -39.36,-1.28 -78.87,0.3 -117.93,5.42zm-196.57 -45.66c-45.25,-73.15 -90.15,-146.51 -135.68,-219.48 -56.81,90.66 -113.82,181.2 -170.66,271.83 68.42,0.09 136.83,-0.08 205.25,0.07 31.03,-22.21 65.43,-39.03 101.09,-52.42zm169.86 274.9c-28.66,-46.13 -57.33,-92.25 -86.04,-138.34 -30.45,-0.03 -60.9,0.02 -91.35,-0.01 -27.63,29.92 -46.03,67.94 -54.28,107.71 -7.98,38.44 -9.23,78.43 -2.81,117.2 5.8,35 19.18,68.84 39.72,97.83 21.13,29.82 49.44,54.25 81.07,72.4 56.93,32.68 122.61,46.9 187.72,51.45 0.03,-74.7 0.05,-149.41 0,-224.12 -57.95,-0.07 -115.9,0.04 -173.85,-0.05l-17.4 -0.03 -0.07 -17.41c-0.06,-16.4 -0.06,-32.81 0.02,-49.22l0.1 -17.39 17.39 -0.01c33.26,-0.02 66.52,0.01 99.78,-0.01z"/>
   <path class="fil2" d="M542.09 166.4c51.02,-0.04 102.06,-0.04 153.08,0 62.93,99.91 125.95,199.76 188.91,299.68 51.19,-7.6 102.98,-10.6 154.68,-10.64 49.1,0.51 98.08,6.93 145.91,18.02 32.51,7.75 64.68,17.72 94.79,32.42 18.76,9.28 36.87,20.47 51.72,35.39 6.72,7.17 12.96,14.81 19.53,22.15 0.21,-32.54 0,-65.07 0.11,-97.58 33.51,0 67.02,-0.02 100.53,0 0,68.19 -0.02,136.4 0.02,204.62 -35.3,0.04 -70.57,0.59 -105.87,0.46 -8.19,-30.91 -23.64,-60.02 -45.81,-83.16 -26.45,-28.05 -61.02,-47.17 -97.21,-59.62 -45.06,-15.43 -92.76,-21.53 -140.21,-23.19 -49.32,-1.49 -98.87,1.19 -147.53,9.64 54.57,86.72 109.21,173.4 163.93,260.02 56.83,-0.03 113.64,0 170.45,0 0.02,16.35 0,32.7 0.02,49.06 -41.09,0.08 -82.19,-0.02 -123.3,0.06 -0.04,84.4 -0.04,168.81 0,253.21 42.04,-7.74 83.66,-20.36 120.81,-41.85 39.34,-22.45 74.64,-57.68 84.64,-103.21 41,0.08 82,0.21 123,0.19 -5.3,34.64 -21.88,67.17 -45.9,92.57 -26.04,28.02 -59.44,48.15 -94.44,62.98 -59.64,24.96 -124.02,36.17 -188.11,42.06 0.39,30.96 -1.7,62.22 3.58,92.9 5.34,32.91 18.68,65.02 41.04,90.04 23.19,26.42 54.85,44.12 88,54.95 43.7,14.24 90.02,18.28 135.76,18.17 36.23,-0.23 72.62,1.11 108.68,-3.08 39.45,-4.43 79.02,-13.55 114.23,-32.45 27.28,-14.53 51.34,-35.63 67.64,-62.04 19.6,-31.42 28,-68.81 28.38,-105.55 -0.04,-119.76 0.07,-239.53 -0.06,-359.31 -42,-0.09 -84.02,0.31 -126.02,0.38 -0.02,-16.38 -0.13,-32.75 0.04,-49.13 122.17,0.09 244.34,0.02 366.51,0.05 0.02,16.35 -0.02,32.72 0.02,49.08 -41.13,0.08 -82.28,-0.11 -123.4,0.08 -0.11,117.51 0.4,235 0.4,352.49 0.11,28.47 -3.4,57.15 -12.47,84.21 -10.49,31.94 -29.06,61.17 -53.68,84.06 -37.78,35.51 -86.87,56.26 -136.51,69.02 -67.89,17.28 -138.36,20.64 -208.12,20 -79.59,0.68 -160.57,-2.66 -237.08,-26.57 -39.11,-12.36 -77.02,-30.85 -107.3,-58.92 -29.98,-27.34 -50.55,-64.23 -59.59,-103.65 -9.22,-36.3 -7.19,-73.98 -7.19,-111.09 -92.13,-2.95 -185.58,-14.1 -271.6,-48.95 -59.7,-24.22 -115.72,-61.77 -152.99,-115.15 -28.13,-39.72 -44.41,-87.15 -49.43,-135.38 -5.6,-54.02 -0.3,-109.89 20.43,-160.38 10.4,-26.19 25.89,-49.94 43.02,-72.17 -73.43,-0.04 -146.83,-0.09 -220.25,0.04 -36.28,57.81 -72.81,115.44 -109.15,173.23 43.87,0.11 87.72,0 131.57,0.05 0.04,16.35 0,32.7 0.02,49.06 -117.98,0.06 -235.97,0.02 -353.95,0.02 -0.13,-16.36 -0.04,-32.7 -0.06,-49.06 35.89,-0.07 71.78,0 107.65,-0.05 129.43,-202.7 258.79,-405.42 388.13,-608.18zm-132.81 385.59c79.38,0.21 158.78,-0.04 238.16,0.13 2.69,0.21 5.32,-0.47 7.41,-2.24 35.91,-26 76.74,-44.36 118.64,-58.46 -54.05,-87.19 -107.47,-174.77 -161.96,-261.68 -67.3,107.49 -134.91,214.78 -202.25,322.25zm256.04 294.53c6.27,37.59 20.57,73.95 42.7,105.08 22.55,31.94 52.83,58.02 86.63,77.47 64.79,37.15 140.03,51.57 213.94,54.78 0.02,-86.7 0.06,-173.4 -0.02,-260.1 -63.77,-0.13 -127.53,0.02 -191.3,-0.08 -0.06,-16.36 -0.06,-32.71 0.02,-49.06 43.73,-0.03 87.47,0.04 131.22,-0.05 -35.9,-57.79 -71.79,-115.55 -107.77,-173.29 -36.17,-0.05 -72.34,0.02 -108.53,-0.02 -62.69,63.17 -80.96,159.67 -66.89,245.27z"/>
  </g>
 </g>
</svg>
